<svg xlink="http://www.w3.org/1999/xlink" viewBox="0 0 5000 5000" xmlns="http://www.w3.org/2000/svg" style="transform: scale(1);"><defs><filter id="goo"><feGaussianBlur in="SourceGraphic" stdDeviation="18.65" result="blur"></feGaussianBlur><feColorMatrix in="blur" type="matrix" values="1 0 0 0 0 0 1 0 0 0 0 0 1 0 0 0 0 0 19 -9" result="good"></feColorMatrix><feComposite in="SourceGraphic" in2="goo" operator="atop"></feComposite></filter><path d="M330,325C287,363 228,367 175,330C137,287 133,228 170,175L325,170Q415,240 330,325z" id="P0"></path><path d="M383,313C297,314 260,329 187,383C186,297 171,260 117,187L313,117Q455,169 383,313z" id="P1"></path><path d="M151,289L211,151C257,193 284,204 349,211L289,349C236,364 183,343 151,289z" id="P2"></path><path d="M309,124C371,162 399,231 376,309C294,311 259,324 191,376C189,294 176,259 124,191L309,124z" id="P3"></path><path d="M127,172Q196,38 328,127Q462,196 373,328Q304,462 172,373C112,326 92,250 127,172z" id="P4"></path><path d="M229,417C143,397 86,327 83,229C103,143 173,86 271,83Q444,89 417,271C323,303 289,332 229,417z" id="P5"></path></defs><rect id="RECT" width="5000" height="5000" fill="#111"></rect><g id="group" fill="#FFF" filter="url(#goo)"><use x="-41" y="-70" href="#P1"></use><use x="-167" y="5" href="#P2"></use><use x="-37" y="238" href="#P5"></use><use x="-49" y="524" href="#P3"></use><use x="-172" y="689" href="#P5"></use><use x="-23" y="1077" href="#P5"></use><use x="-62" y="1325" href="#P5"></use><use x="-108" y="1528" href="#P2"></use><use x="-87" y="1618" href="#P1"></use><use x="-13" y="2024" href="#P1"></use><use x="25" y="2259" href="#P0"></use><use x="-58" y="2395" href="#P0"></use><use x="-213" y="2670" href="#P1"></use><use x="-75" y="2760" href="#P3"></use><use x="-208" y="2995" href="#P4"></use><use x="-120" y="3330" href="#P4"></use><use x="-232" y="3606" href="#P4"></use><use x="-40" y="3674" href="#P2"></use><use x="-266" y="4015" href="#P5"></use><use x="-79" y="4253" href="#P1"></use><use x="-92" y="4499" href="#P3"></use><use x="-52" y="4587" href="#P2"></use><use x="-109" y="4958" href="#P0"></use><use x="-217" y="5115" href="#P5"></use><use x="11" y="-186" href="#P0"></use><use x="69" y="81" href="#P0"></use><use x="96" y="214" href="#P2"></use><use x="20" y="573" href="#P3"></use><use x="30" y="691" href="#P3"></use><use x="144" y="1097" href="#P2"></use><use x="241" y="1351" href="#P3"></use><use x="202" y="1440" href="#P0"></use><use x="89" y="1606" href="#P5"></use><use x="133" y="1998" href="#P5"></use><use x="120" y="2090" href="#P2"></use><use x="82" y="2316" href="#P2"></use><use x="79" y="2586" href="#P3"></use><use x="142" y="2754" href="#P3"></use><use x="145" y="3119" href="#P4"></use><use x="109" y="3219" href="#P1"></use><use x="176" y="3515" href="#P2"></use><use x="110" y="3784" href="#P1"></use><use x="213" y="3993" href="#P2"></use><use x="150" y="4130" href="#P5"></use><use x="-18" y="4494" href="#P1"></use><use x="75" y="4794" href="#P4"></use><use x="111" y="4917" href="#P3"></use><use x="161" y="5023" href="#P1"></use><use x="406" y="-154" href="#P2"></use><use x="359" y="137" href="#P2"></use><use x="300" y="193" href="#P5"></use><use x="265" y="591" href="#P1"></use><use x="446" y="725" href="#P3"></use><use x="384" y="1140" href="#P5"></use><use x="341" y="1325" href="#P0"></use><use x="398" y="1423" href="#P3"></use><use x="362" y="1721" href="#P0"></use><use x="328" y="1917" href="#P1"></use><use x="270" y="2075" href="#P0"></use><use x="357" y="2499" href="#P1"></use><use x="239" y="2619" href="#P5"></use><use x="252" y="2782" href="#P1"></use><use x="323" y="3067" href="#P3"></use><use x="329" y="3325" href="#P4"></use><use x="255" y="3577" href="#P0"></use><use x="342" y="3725" href="#P3"></use><use x="443" y="4024" href="#P0"></use><use x="273" y="4130" href="#P4"></use><use x="320" y="4507" href="#P4"></use><use x="280" y="4790" href="#P2"></use><use x="214" y="4949" href="#P2"></use><use x="392" y="5203" href="#P1"></use><use x="598" y="-233" href="#P2"></use><use x="430" y="97" href="#P5"></use><use x="619" y="444" href="#P1"></use><use x="663" y="617" href="#P5"></use><use x="523" y="859" href="#P0"></use><use x="635" y="954" href="#P1"></use><use x="477" y="1216" href="#P5"></use><use x="472" y="1473" href="#P4"></use><use x="664" y="1809" href="#P3"></use><use x="651" y="1925" href="#P2"></use><use x="645" y="2121" href="#P0"></use><use x="543" y="2444" href="#P1"></use><use x="417" y="2690" href="#P1"></use><use x="649" y="2766" href="#P1"></use><use x="620" y="3040" href="#P3"></use><use x="487" y="3211" href="#P1"></use><use x="423" y="3537" href="#P0"></use><use x="442" y="3796" href="#P2"></use><use x="476" y="3923" href="#P4"></use><use x="654" y="4296" href="#P0"></use><use x="552" y="4486" href="#P1"></use><use x="494" y="4616" href="#P0"></use><use x="484" y="4942" href="#P2"></use><use x="473" y="5187" href="#P0"></use><use x="824" y="-191" href="#P0"></use><use x="777" y="-55" href="#P3"></use><use x="859" y="467" href="#P2"></use><use x="857" y="664" href="#P3"></use><use x="837" y="810" href="#P4"></use><use x="723" y="891" href="#P4"></use><use x="802" y="1257" href="#P4"></use><use x="617" y="1548" href="#P5"></use><use x="667" y="1758" href="#P4"></use><use x="906" y="2035" href="#P2"></use><use x="837" y="2196" href="#P4"></use><use x="915" y="2283" href="#P3"></use><use x="845" y="2544" href="#P1"></use><use x="794" y="2833" href="#P5"></use><use x="799" y="3020" href="#P0"></use><use x="772" y="3411" href="#P4"></use><use x="823" y="3536" href="#P3"></use><use x="823" y="3876" href="#P5"></use><use x="715" y="4069" href="#P5"></use><use x="760" y="4191" href="#P2"></use><use x="871" y="4417" href="#P4"></use><use x="809" y="4553" href="#P2"></use><use x="723" y="4882" href="#P5"></use><use x="841" y="5203" href="#P5"></use><use x="999" y="-230" href="#P4"></use><use x="1016" y="64" href="#P4"></use><use x="1045" y="398" href="#P4"></use><use x="932" y="568" href="#P4"></use><use x="884" y="842" href="#P4"></use><use x="1026" y="950" href="#P4"></use><use x="941" y="1316" href="#P0"></use><use x="957" y="1418" href="#P1"></use><use x="935" y="1608" href="#P5"></use><use x="1015" y="2056" href="#P2"></use><use x="1091" y="2084" href="#P1"></use><use x="1045" y="2477" href="#P3"></use><use x="988" y="2708" href="#P2"></use><use x="944" y="2886" href="#P2"></use><use x="1068" y="3013" href="#P4"></use><use x="1049" y="3166" href="#P0"></use><use x="1098" y="3513" href="#P3"></use><use x="926" y="3903" href="#P0"></use><use x="995" y="4011" href="#P2"></use><use x="909" y="4317" href="#P1"></use><use x="1064" y="4371" href="#P4"></use><use x="1048" y="4559" href="#P5"></use><use x="915" y="4836" href="#P4"></use><use x="1018" y="5202" href="#P0"></use><use x="1318" y="-149" href="#P5"></use><use x="1250" y="115" href="#P4"></use><use x="1260" y="320" href="#P2"></use><use x="1162" y="465" href="#P0"></use><use x="1290" y="728" href="#P1"></use><use x="1347" y="1068" href="#P1"></use><use x="1253" y="1156" href="#P1"></use><use x="1259" y="1416" href="#P5"></use><use x="1301" y="1691" href="#P3"></use><use x="1227" y="2002" href="#P2"></use><use x="1157" y="2249" href="#P3"></use><use x="1267" y="2439" href="#P1"></use><use x="1243" y="2603" href="#P1"></use><use x="1240" y="2758" href="#P0"></use><use x="1173" y="3146" href="#P2"></use><use x="1265" y="3263" href="#P1"></use><use x="1177" y="3422" href="#P3"></use><use x="1314" y="3696" href="#P4"></use><use x="1274" y="4042" href="#P4"></use><use x="1293" y="4353" href="#P0"></use><use x="1162" y="4404" href="#P4"></use><use x="1336" y="4635" href="#P2"></use><use x="1312" y="4846" href="#P5"></use><use x="1287" y="5040" href="#P2"></use><use x="1387" y="-82" href="#P1"></use><use x="1505" y="221" href="#P1"></use><use x="1511" y="408" href="#P1"></use><use x="1452" y="510" href="#P3"></use><use x="1391" y="691" href="#P3"></use><use x="1566" y="1079" href="#P0"></use><use x="1512" y="1294" href="#P5"></use><use x="1546" y="1410" href="#P4"></use><use x="1435" y="1652" href="#P5"></use><use x="1349" y="1835" href="#P2"></use><use x="1351" y="2224" href="#P3"></use><use x="1414" y="2372" href="#P1"></use><use x="1457" y="2610" href="#P2"></use><use x="1486" y="2954" href="#P2"></use><use x="1327" y="3033" href="#P1"></use><use x="1455" y="3310" href="#P3"></use><use x="1517" y="3439" href="#P0"></use><use x="1554" y="3621" href="#P3"></use><use x="1497" y="3912" href="#P3"></use><use x="1540" y="4243" href="#P0"></use><use x="1508" y="4501" href="#P5"></use><use x="1485" y="4591" href="#P5"></use><use x="1548" y="4795" href="#P1"></use><use x="1536" y="5183" href="#P0"></use><use x="1667" y="-182" href="#P2"></use><use x="1600" y="188" href="#P0"></use><use x="1790" y="342" href="#P2"></use><use x="1617" y="508" href="#P5"></use><use x="1678" y="885" href="#P1"></use><use x="1730" y="1091" href="#P3"></use><use x="1748" y="1183" href="#P3"></use><use x="1609" y="1549" href="#P5"></use><use x="1761" y="1578" href="#P0"></use><use x="1719" y="2018" href="#P2"></use><use x="1783" y="2245" href="#P1"></use><use x="1679" y="2305" href="#P5"></use><use x="1751" y="2691" href="#P0"></use><use x="1697" y="2953" href="#P2"></use><use x="1821" y="2968" href="#P1"></use><use x="1576" y="3291" href="#P0"></use><use x="1736" y="3587" href="#P5"></use><use x="1658" y="3793" href="#P2"></use><use x="1676" y="3863" href="#P5"></use><use x="1803" y="4088" href="#P5"></use><use x="1677" y="4598" href="#P2"></use><use x="1621" y="4666" href="#P0"></use><use x="1665" y="4765" href="#P4"></use><use x="1826" y="5004" href="#P1"></use><use x="1821" y="-212" href="#P3"></use><use x="1961" y="98" href="#P3"></use><use x="2033" y="228" href="#P0"></use><use x="1820" y="407" href="#P5"></use><use x="1958" y="772" href="#P3"></use><use x="1921" y="1082" href="#P5"></use><use x="1949" y="1153" href="#P5"></use><use x="1812" y="1543" href="#P3"></use><use x="1936" y="1708" href="#P0"></use><use x="1945" y="1935" href="#P2"></use><use x="1887" y="2202" href="#P3"></use><use x="1917" y="2373" href="#P2"></use><use x="1944" y="2577" href="#P1"></use><use x="2039" y="2869" href="#P5"></use><use x="1875" y="2989" href="#P2"></use><use x="1891" y="3409" href="#P4"></use><use x="1898" y="3585" href="#P3"></use><use x="1882" y="3783" href="#P3"></use><use x="2055" y="4027" href="#P1"></use><use x="1904" y="4291" href="#P5"></use><use x="1902" y="4593" href="#P5"></use><use x="1983" y="4763" href="#P3"></use><use x="1979" y="4908" href="#P5"></use><use x="1913" y="5132" href="#P1"></use><use x="2243" y="22" href="#P0"></use><use x="2212" y="172" href="#P1"></use><use x="2093" y="247" href="#P1"></use><use x="2175" y="638" href="#P2"></use><use x="2199" y="710" href="#P1"></use><use x="2214" y="1011" href="#P0"></use><use x="2067" y="1137" href="#P3"></use><use x="2070" y="1480" href="#P1"></use><use x="2266" y="1734" href="#P3"></use><use x="2110" y="1918" href="#P0"></use><use x="2079" y="2086" href="#P4"></use><use x="2098" y="2290" href="#P1"></use><use x="2059" y="2698" href="#P3"></use><use x="2155" y="2786" href="#P1"></use><use x="2060" y="3018" href="#P0"></use><use x="2263" y="3404" href="#P2"></use><use x="2085" y="3555" href="#P2"></use><use x="2124" y="3785" href="#P4"></use><use x="2103" y="4011" href="#P0"></use><use x="2141" y="4201" href="#P4"></use><use x="2212" y="4339" href="#P5"></use><use x="2169" y="4815" href="#P4"></use><use x="2246" y="4912" href="#P1"></use><use x="2083" y="5154" href="#P0"></use><use x="2340" y="-47" href="#P4"></use><use x="2299" y="41" href="#P5"></use><use x="2408" y="354" href="#P0"></use><use x="2283" y="610" href="#P1"></use><use x="2354" y="810" href="#P3"></use><use x="2462" y="1037" href="#P4"></use><use x="2466" y="1307" href="#P3"></use><use x="2388" y="1312" href="#P0"></use><use x="2397" y="1792" href="#P4"></use><use x="2358" y="2042" href="#P4"></use><use x="2271" y="2083" href="#P5"></use><use x="2286" y="2395" href="#P3"></use><use x="2321" y="2517" href="#P3"></use><use x="2392" y="2830" href="#P0"></use><use x="2309" y="3156" href="#P3"></use><use x="2283" y="3339" href="#P0"></use><use x="2281" y="3679" href="#P0"></use><use x="2462" y="3740" href="#P5"></use><use x="2401" y="3939" href="#P3"></use><use x="2476" y="4226" href="#P4"></use><use x="2458" y="4398" href="#P3"></use><use x="2455" y="4764" href="#P4"></use><use x="2473" y="4959" href="#P5"></use><use x="2377" y="5108" href="#P2"></use><use x="2709" y="-181" href="#P3"></use><use x="2539" y="55" href="#P0"></use><use x="2509" y="238" href="#P4"></use><use x="2547" y="603" href="#P5"></use><use x="2630" y="943" href="#P1"></use><use x="2695" y="1028" href="#P5"></use><use x="2661" y="1236" href="#P5"></use><use x="2643" y="1590" href="#P4"></use><use x="2576" y="1614" href="#P1"></use><use x="2669" y="1899" href="#P4"></use><use x="2705" y="2078" href="#P4"></use><use x="2512" y="2367" href="#P0"></use><use x="2539" y="2630" href="#P5"></use><use x="2727" y="2891" href="#P1"></use><use x="2649" y="3036" href="#P2"></use><use x="2519" y="3159" href="#P3"></use><use x="2722" y="3651" href="#P5"></use><use x="2732" y="3790" href="#P5"></use><use x="2674" y="3963" href="#P1"></use><use x="2568" y="4163" href="#P5"></use><use x="2679" y="4476" href="#P5"></use><use x="2568" y="4696" href="#P1"></use><use x="2663" y="4858" href="#P4"></use><use x="2599" y="5057" href="#P0"></use><use x="2897" y="-51" href="#P0"></use><use x="2762" y="101" href="#P5"></use><use x="2949" y="188" href="#P1"></use><use x="2727" y="678" href="#P1"></use><use x="2746" y="873" href="#P1"></use><use x="2723" y="975" href="#P2"></use><use x="2746" y="1164" href="#P2"></use><use x="2855" y="1399" href="#P3"></use><use x="2738" y="1593" href="#P4"></use><use x="2918" y="1961" href="#P5"></use><use x="2831" y="2136" href="#P4"></use><use x="2865" y="2279" href="#P3"></use><use x="2905" y="2599" href="#P5"></use><use x="2833" y="2831" href="#P4"></use><use x="2810" y="2944" href="#P3"></use><use x="2736" y="3185" href="#P0"></use><use x="2739" y="3622" href="#P4"></use><use x="2782" y="3827" href="#P5"></use><use x="2785" y="3959" href="#P5"></use><use x="2875" y="4211" href="#P1"></use><use x="2808" y="4450" href="#P1"></use><use x="2921" y="4639" href="#P0"></use><use x="2941" y="4855" href="#P4"></use><use x="2844" y="5057" href="#P5"></use><use x="3013" y="8" href="#P1"></use><use x="2964" y="117" href="#P0"></use><use x="3080" y="314" href="#P0"></use><use x="3051" y="423" href="#P3"></use><use x="3081" y="824" href="#P1"></use><use x="3049" y="1148" href="#P3"></use><use x="3137" y="1167" href="#P2"></use><use x="3087" y="1461" href="#P1"></use><use x="3208" y="1637" href="#P2"></use><use x="3170" y="1860" href="#P4"></use><use x="2984" y="2269" href="#P0"></use><use x="3042" y="2442" href="#P2"></use><use x="2974" y="2634" href="#P4"></use><use x="3030" y="2809" href="#P4"></use><use x="2992" y="3037" href="#P5"></use><use x="3081" y="3431" href="#P1"></use><use x="3152" y="3632" href="#P1"></use><use x="3180" y="3766" href="#P1"></use><use x="3024" y="3924" href="#P2"></use><use x="3053" y="4207" href="#P1"></use><use x="3088" y="4373" href="#P5"></use><use x="3182" y="4667" href="#P0"></use><use x="3056" y="4862" href="#P1"></use><use x="2956" y="5055" href="#P4"></use><use x="3186" y="-108" href="#P2"></use><use x="3200" y="156" href="#P1"></use><use x="3212" y="247" href="#P3"></use><use x="3270" y="512" href="#P4"></use><use x="3217" y="866" href="#P0"></use><use x="3304" y="1056" href="#P0"></use><use x="3176" y="1235" href="#P1"></use><use x="3233" y="1357" href="#P0"></use><use x="3298" y="1766" href="#P4"></use><use x="3388" y="1927" href="#P5"></use><use x="3379" y="2252" href="#P1"></use><use x="3215" y="2353" href="#P0"></use><use x="3182" y="2575" href="#P3"></use><use x="3398" y="2777" href="#P5"></use><use x="3221" y="3164" href="#P5"></use><use x="3384" y="3318" href="#P0"></use><use x="3315" y="3480" href="#P3"></use><use x="3351" y="3690" href="#P2"></use><use x="3352" y="3943" href="#P1"></use><use x="3238" y="4190" href="#P3"></use><use x="3231" y="4347" href="#P0"></use><use x="3275" y="4619" href="#P2"></use><use x="3328" y="4856" href="#P2"></use><use x="3237" y="5086" href="#P0"></use><use x="3499" y="-25" href="#P1"></use><use x="3485" y="123" href="#P5"></use><use x="3548" y="323" href="#P1"></use><use x="3613" y="526" href="#P3"></use><use x="3653" y="722" href="#P2"></use><use x="3620" y="978" href="#P5"></use><use x="3590" y="1253" href="#P4"></use><use x="3477" y="1559" href="#P1"></use><use x="3529" y="1684" href="#P0"></use><use x="3611" y="1848" href="#P4"></use><use x="3646" y="2173" href="#P2"></use><use x="3688" y="2419" href="#P5"></use><use x="3639" y="2603" href="#P2"></use><use x="3645" y="2780" href="#P2"></use><use x="3651" y="3065" href="#P0"></use><use x="3582" y="3301" href="#P1"></use><use x="3594" y="3565" href="#P4"></use><use x="3585" y="3669" href="#P0"></use><use x="3577" y="3863" href="#P2"></use><use x="3661" y="4218" href="#P4"></use><use x="3498" y="4406" href="#P0"></use><use x="3435" y="4763" href="#P0"></use><use x="3582" y="4939" href="#P3"></use><use x="3573" y="5040" href="#P4"></use><use x="3869" y="-290" href="#P0"></use><use x="3743" y="74" href="#P0"></use><use x="3708" y="405" href="#P2"></use><use x="3840" y="515" href="#P3"></use><use x="3792" y="815" href="#P3"></use><use x="3799" y="1113" href="#P3"></use><use x="3875" y="1143" href="#P2"></use><use x="3706" y="1431" href="#P5"></use><use x="3700" y="1642" href="#P3"></use><use x="3794" y="2018" href="#P4"></use><use x="3840" y="2098" href="#P1"></use><use x="3830" y="2414" href="#P2"></use><use x="3840" y="2645" href="#P1"></use><use x="3715" y="2966" href="#P1"></use><use x="3694" y="3011" href="#P0"></use><use x="3749" y="3298" href="#P0"></use><use x="3666" y="3417" href="#P3"></use><use x="3663" y="3623" href="#P2"></use><use x="3714" y="3914" href="#P3"></use><use x="3689" y="4223" href="#P5"></use><use x="3730" y="4511" href="#P5"></use><use x="3827" y="4623" href="#P0"></use><use x="3836" y="4827" href="#P2"></use><use x="3655" y="5089" href="#P5"></use><use x="4087" y="-249" href="#P4"></use><use x="4056" y="7" href="#P2"></use><use x="3907" y="295" href="#P3"></use><use x="4054" y="503" href="#P2"></use><use x="3964" y="860" href="#P0"></use><use x="4060" y="883" href="#P4"></use><use x="3867" y="1186" href="#P0"></use><use x="4015" y="1403" href="#P4"></use><use x="4066" y="1752" href="#P0"></use><use x="4010" y="1987" href="#P2"></use><use x="3942" y="2188" href="#P4"></use><use x="3955" y="2442" href="#P1"></use><use x="3960" y="2547" href="#P5"></use><use x="3994" y="2878" href="#P1"></use><use x="3905" y="3010" href="#P3"></use><use x="3900" y="3237" href="#P1"></use><use x="3865" y="3420" href="#P1"></use><use x="4116" y="3914" href="#P5"></use><use x="3979" y="4009" href="#P4"></use><use x="3915" y="4152" href="#P1"></use><use x="3903" y="4506" href="#P2"></use><use x="4072" y="4739" href="#P0"></use><use x="4076" y="4868" href="#P2"></use><use x="4092" y="5022" href="#P4"></use><use x="4221" y="-189" href="#P5"></use><use x="4272" y="125" href="#P1"></use><use x="4232" y="293" href="#P1"></use><use x="4083" y="588" href="#P0"></use><use x="4298" y="794" href="#P4"></use><use x="4317" y="997" href="#P1"></use><use x="4311" y="1239" href="#P4"></use><use x="4295" y="1468" href="#P4"></use><use x="4179" y="1764" href="#P2"></use><use x="4180" y="1859" href="#P0"></use><use x="4231" y="2053" href="#P5"></use><use x="4116" y="2412" href="#P2"></use><use x="4071" y="2514" href="#P4"></use><use x="4225" y="2931" href="#P2"></use><use x="4129" y="3110" href="#P0"></use><use x="4288" y="3277" href="#P2"></use><use x="4338" y="3455" href="#P2"></use><use x="4321" y="3817" href="#P0"></use><use x="4312" y="4120" href="#P5"></use><use x="4194" y="4183" href="#P3"></use><use x="4249" y="4386" href="#P3"></use><use x="4255" y="4622" href="#P0"></use><use x="4305" y="4822" href="#P4"></use><use x="4248" y="5096" href="#P4"></use><use x="4563" y="-112" href="#P5"></use><use x="4451" y="-20" href="#P3"></use><use x="4392" y="249" href="#P2"></use><use x="4526" y="632" href="#P2"></use><use x="4427" y="894" href="#P5"></use><use x="4493" y="1063" href="#P2"></use><use x="4366" y="1215" href="#P2"></use><use x="4513" y="1506" href="#P4"></use><use x="4482" y="1677" href="#P1"></use><use x="4390" y="1955" href="#P5"></use><use x="4541" y="2123" href="#P1"></use><use x="4431" y="2305" href="#P0"></use><use x="4572" y="2537" href="#P4"></use><use x="4571" y="2863" href="#P5"></use><use x="4546" y="3001" href="#P2"></use><use x="4584" y="3232" href="#P2"></use><use x="4395" y="3512" href="#P5"></use><use x="4542" y="3820" href="#P2"></use><use x="4342" y="4103" href="#P4"></use><use x="4430" y="4081" href="#P4"></use><use x="4445" y="4470" href="#P2"></use><use x="4390" y="4731" href="#P0"></use><use x="4510" y="4933" href="#P3"></use><use x="4440" y="5180" href="#P3"></use><use x="4645" y="-114" href="#P1"></use><use x="4743" y="110" href="#P4"></use><use x="4659" y="168" href="#P0"></use><use x="4790" y="598" href="#P3"></use><use x="4619" y="793" href="#P2"></use><use x="4604" y="988" href="#P0"></use><use x="4629" y="1229" href="#P4"></use><use x="4723" y="1557" href="#P4"></use><use x="4757" y="1730" href="#P2"></use><use x="4638" y="2009" href="#P0"></use><use x="4782" y="2133" href="#P4"></use><use x="4671" y="2337" href="#P4"></use><use x="4766" y="2654" href="#P3"></use><use x="4769" y="2796" href="#P4"></use><use x="4685" y="2986" href="#P2"></use><use x="4640" y="3245" href="#P3"></use><use x="4668" y="3467" href="#P5"></use><use x="4575" y="3836" href="#P3"></use><use x="4571" y="3966" href="#P3"></use><use x="4733" y="4276" href="#P1"></use><use x="4822" y="4517" href="#P0"></use><use x="4696" y="4679" href="#P2"></use><use x="4805" y="4865" href="#P1"></use><use x="4757" y="5039" href="#P3"></use><use x="4759" y="-115" href="#P2"></use><use x="4833" y="44" href="#P2"></use><use x="4825" y="234" href="#P3"></use><use x="5031" y="597" href="#P5"></use><use x="4862" y="678" href="#P5"></use><use x="4874" y="1135" href="#P0"></use><use x="4751" y="1282" href="#P1"></use><use x="4972" y="1522" href="#P0"></use><use x="4886" y="1736" href="#P1"></use><use x="4868" y="2009" href="#P3"></use><use x="4853" y="2230" href="#P5"></use><use x="4913" y="2367" href="#P1"></use><use x="4924" y="2507" href="#P2"></use><use x="4841" y="2813" href="#P4"></use><use x="4904" y="3015" href="#P0"></use><use x="4896" y="3304" href="#P0"></use><use x="4861" y="3442" href="#P2"></use><use x="4818" y="3702" href="#P2"></use><use x="4779" y="4061" href="#P1"></use><use x="4982" y="4333" href="#P1"></use><use x="4919" y="4553" href="#P1"></use><use x="4969" y="4741" href="#P3"></use><use x="4931" y="4986" href="#P1"></use><use x="4848" y="5081" href="#P0"></use><use x="5089" y="-53" href="#P4"></use><use x="5176" y="135" href="#P3"></use><use x="5156" y="367" href="#P0"></use><use x="5203" y="539" href="#P3"></use><use x="5191" y="717" href="#P2"></use><use x="5205" y="921" href="#P0"></use><use x="5189" y="1347" href="#P2"></use><use x="5164" y="1557" href="#P5"></use><use x="5106" y="1624" href="#P4"></use><use x="5105" y="1928" href="#P4"></use><use x="5071" y="2145" href="#P1"></use><use x="5197" y="2310" href="#P5"></use><use x="5003" y="2551" href="#P5"></use><use x="5066" y="2889" href="#P0"></use><use x="5127" y="3111" href="#P1"></use><use x="5118" y="3338" href="#P3"></use><use x="5065" y="3564" href="#P5"></use><use x="5165" y="3772" href="#P2"></use><use x="5025" y="4040" href="#P5"></use><use x="5274" y="4230" href="#P3"></use><use x="5111" y="4537" href="#P5"></use><use x="5142" y="4617" href="#P4"></use><use x="5050" y="4815" href="#P5"></use><use x="5172" y="5203" href="#P3"></use></g></svg>